<svg xmlns="http://www.w3.org/2000/svg" width="40" height="40" viewBox="0 0 40 40" fill="none">
  <g clip-path="url(#clip0_25_907)">
    <path d="M40 40H0V35H40V40ZM8.1025 25.0788L21.1888 0.88L6.77875 24.315L8.1025 25.0788ZM3.75375 31.0838L5.9725 31.25L7.48625 29.6187L7.155 27.4187L5.2275 26.3062L3.15625 27.1187L2.5 29.245L3.75375 31.0838ZM20.4825 19.7987L31.1888 0L19.4 19.1737L20.4825 19.7987ZM16.2537 25.8737L18.4725 26.04L19.9862 24.4088L19.655 22.2087L17.7275 21.0963L15.6562 21.9088L15 24.035L16.2537 25.8737ZM27.9787 26.26L38.685 6.46125L26.8962 25.635L27.9787 26.26ZM23.75 32.3338L25.9688 32.5L27.4825 30.8687L27.1513 28.6687L25.2238 27.5562L23.1525 28.3687L22.4963 30.495L23.75 32.3338Z" fill="#0F1E32"/>
  </g>
  <defs>
    <clipPath id="clip0_25_907">
      <rect width="40" height="40" fill="white"/>
    </clipPath>
  </defs>
</svg>